<svg xmlns="http://www.w3.org/2000/svg" fill="gray" class="w-6 h-6 group-hover:fill-white" viewBox="0 0 24 24" part="icon blz-icon">
                        <path d="M15.75 9.75a3.733 3.733 0 0 1-1.433 2.949A3.734 3.734 0 0 1 12 13.5a3.734 3.734 0 0 1-3.023-1.53 3.75 3.75 0 1 1 6.773-2.22Zm-5.5 0a1.75 1.75 0 1 0 3.5 0 1.75 1.75 0 0 0-3.5 0Z"></path><path d="M12 22c5.523 0 10-4.477 10-10S17.523 2 12 2 2 6.477 2 12s4.477 10 10 10Zm5.047-4.73c.148.193.28.393.393.595A7.972 7.972 0 0 1 12 20a7.972 7.972 0 0 1-5.445-2.139l.005.005c.114-.202.245-.403.393-.596.442-.575.92-.943 1.36-1.13a7.366 7.366 0 0 0 3.687.992c1.34 0 2.594-.364 3.687-.993.44.188.919.556 1.36 1.13Zm-8.835-3.194c-1.188.268-2.237 1.115-2.99 2.172H5.22a8 8 0 1 1 13.56 0c-.755-1.056-1.804-1.904-2.992-2.172a3.627 3.627 0 0 0-.487-.075c-.947.715-2.082 1.131-3.3 1.131-1.22 0-2.355-.416-3.302-1.131-.164.014-.327.04-.487.075Z"></path>
                    </svg>