<svg xmlns="http://www.w3.org/2000/svg" fill="gray" viewBox="0 0 24 24" part="icon blz-icon"><path d="M16.066 7.245a2.75 2.75 0 0 0 1.006-3.756c-.325-.563-.803-1.1-1.489-1.34-.711-.247-1.485-.119-2.268.333-.295.17-.528.432-.708.688-.186.265-.35.574-.49.895a8.867 8.867 0 0 0-.535 1.715 8.953 8.953 0 0 0-1.557-1.494 5.158 5.158 0 0 0-.87-.53c-.285-.132-.618-.242-.958-.242-.904 0-1.638.276-2.13.846-.475.55-.62 1.254-.62 1.904 0 .659.23 1.263.616 1.736H5a2 2 0 0 0-2 2v3.53a.5.5 0 0 0 .5.5H4V19a2 2 0 0 0 2 2h12a2 2 0 0 0 2-2v-4.97h.5a.5.5 0 0 0 .5-.5V10a2 2 0 0 0-2-2h-4.242l1.308-.755Zm-.293-3.006a1.25 1.25 0 0 1-.457 1.707l-2.383 1.376a4.312 4.312 0 0 1 .062-.933 7.452 7.452 0 0 1 .498-1.725 3.67 3.67 0 0 1 .342-.632c.118-.168.2-.234.23-.25.517-.299.833-.283 1.025-.216.217.076.456.28.683.673ZM6.947 6.264c0-.454.104-.75.255-.924.132-.153.398-.326.995-.326.034 0 .139.016.325.102.177.083.386.21.612.377.453.334.923.79 1.293 1.244.253.311.422.578.52.777h-2.75c-.69 0-1.25-.56-1.25-1.25ZM18 19h-5v-4.899h5V19Zm1-6.97h-6V10h6v2.03Zm-8 0H5V10h6v2.03ZM11 19H6v-4.899h5V19Z"></path></svg>